<svg width="140" height="20" xmlns="http://www.w3.org/2000/svg"><g id="Symbols" stroke="none" stroke-width="1" fill="none" fill-rule="evenodd"><g id="component-/-header-/-header-tab-hamburg_bg" transform="translate(-22 -30)"><g id="Group-7" transform="translate(22 30)"><path d="M107.164 6.601a9.81 9.81 0 011.78.169c.61.112 1.269.336 1.973.674l-.695 2.394a5.958 5.958 0 00-1.307-.587 4.706 4.706 0 00-1.39-.206c-1.224 0-2.207.359-2.947 1.077-.742.718-1.113 1.76-1.113 3.124 0 .798.12 1.472.361 2.021.242.55.557.993.946 1.33.39.338.83.577 1.32.718.492.142.988.213 1.488.213a5.65 5.65 0 001.572-.198 6.873 6.873 0 001.154-.434l.638 2.29c-.407.206-.945.393-1.612.562a8.99 8.99 0 01-2.196.252c-.983 0-1.9-.14-2.753-.42a6.22 6.22 0 01-2.225-1.262 5.898 5.898 0 01-1.488-2.089c-.361-.83-.542-1.798-.542-2.901 0-1.013.172-1.935.515-2.767a6.076 6.076 0 011.445-2.129 6.41 6.41 0 012.225-1.356c.862-.316 1.812-.475 2.85-.475zm-31.67 0c.76 0 1.496.07 2.21.21a8.856 8.856 0 011.988.633l-.695 2.42c-1.094-.546-2.16-.819-3.198-.819-.686 0-1.21.116-1.57.35-.362.233-.543.556-.543.968 0 .341.148.633.445.876.296.242.89.49 1.78.74l.833.242c1.187.34 2.081.808 2.684 1.4.602.592.903 1.372.903 2.341 0 1.239-.482 2.221-1.446 2.948-.963.727-2.28 1.09-3.948 1.09-1.798 0-3.29-.3-4.477-.898l.723-2.417c.538.246 1.108.448 1.71.606a7.342 7.342 0 001.877.237c1.539 0 2.308-.476 2.308-1.426 0-.43-.18-.754-.542-.97-.362-.214-.978-.448-1.849-.7l-.862-.268c-1.15-.359-1.998-.83-2.544-1.413-.547-.583-.82-1.35-.82-2.301 0-.556.12-1.072.36-1.548.241-.475.58-.883 1.016-1.224.435-.341.964-.606 1.585-.795a7.122 7.122 0 012.072-.282zm-27.973 0c.946 0 1.822.14 2.628.42.807.281 1.506.7 2.1 1.262a5.848 5.848 0 011.39 2.06c.333.814.5 1.764.5 2.85 0 1.066-.171 2.024-.514 2.874-.344.85-.82 1.564-1.432 2.143a6.314 6.314 0 01-2.141 1.329A7.418 7.418 0 0147.41 20a7.7 7.7 0 01-2.628-.435 6.043 6.043 0 01-2.1-1.26 5.715 5.715 0 01-1.39-2.048c-.334-.814-.5-1.745-.5-2.793 0-1.086.17-2.058.514-2.916.343-.86.82-1.578 1.432-2.157a6.314 6.314 0 012.14-1.329 7.423 7.423 0 012.642-.46zm71.765 0c.945 0 1.82.14 2.627.42a5.78 5.78 0 012.1 1.262 5.844 5.844 0 011.39 2.06c.333.815.5 1.764.5 2.849 0 1.067-.172 2.026-.514 2.875-.343.85-.82 1.565-1.432 2.143a6.34 6.34 0 01-2.141 1.33 7.444 7.444 0 01-2.642.46 7.724 7.724 0 01-2.628-.434 6.033 6.033 0 01-2.099-1.261c-.594-.551-1.057-1.235-1.39-2.048-.334-.814-.5-1.744-.5-2.794 0-1.085.17-2.056.514-2.915.342-.86.82-1.578 1.432-2.157a6.332 6.332 0 012.14-1.33 7.438 7.438 0 012.643-.46zm-22.216.028v13.343h-3.28V6.629h3.28zM86.95 2.275v4.354h3.643v2.416H86.95v6.685c0 .637.153 1.073.459 1.307.305.234.7.35 1.181.35.37 0 .76-.037 1.168-.112a4.27 4.27 0 001.03-.309l.5 2.36c-.353.15-.83.295-1.432.435-.603.14-1.248.21-1.933.21-1.501 0-2.581-.309-3.24-.927-.658-.617-.986-1.544-.986-2.78v-7.22h-2.002V6.63h2.002V2.275h3.253zM67.402 6.629v13.343h-3.28V6.629h3.28zM60.2 0v19.972h-3.226V0H60.2zM29.28 0v8.23a7.673 7.673 0 011.906-1.166 5.782 5.782 0 012.322-.463c.778 0 1.45.115 2.016.345a3.84 3.84 0 011.404.953c.37.406.644.885.82 1.437.176.553.264 1.16.264 1.823v8.813h-3.28v-8.145c0-.936-.191-1.61-.57-2.023-.381-.412-.942-.619-1.683-.619-.538 0-1.084.138-1.641.413a5.795 5.795 0 00-1.557 1.149v9.225H26V0h3.28zm106.244 6.6c1.427 0 2.53.392 3.308 1.175.779.783 1.168 1.893 1.168 3.329v8.867h-3.28v-8.447c0-.697-.181-1.26-.543-1.692-.361-.43-.904-.647-1.627-.647-.537 0-1.084.152-1.64.454a5.872 5.872 0 00-1.53 1.217v9.115h-3.28V6.63h2.558l.417 1.942a7.56 7.56 0 012.03-1.45c.723-.347 1.53-.52 2.419-.52zm-16.322 2.473c-.427 0-.834.066-1.224.2a2.448 2.448 0 00-1.029.69c-.296.329-.537.767-.722 1.317-.186.549-.279 1.232-.279 2.047 0 .744.093 1.378.279 1.9.185.524.43.958.736 1.304.307.346.658.598 1.057.757.399.16.81.24 1.238.24.407 0 .81-.07 1.21-.212a2.592 2.592 0 001.042-.692c.296-.319.538-.748.723-1.29.185-.54.278-1.209.278-2.007 0-.762-.093-1.414-.278-1.955-.185-.54-.431-.978-.737-1.315a2.85 2.85 0 00-1.056-.745c-.4-.16-.812-.24-1.238-.24zm-71.764 0c-.426 0-.834.067-1.223.2-.39.132-.733.363-1.03.69-.296.329-.537.767-.723 1.316-.184.55-.277 1.233-.277 2.049 0 .744.093 1.377.277 1.9.186.524.432.957.738 1.303a2.77 2.77 0 001.056.758c.4.16.811.239 1.238.239.407 0 .81-.07 1.21-.213a2.607 2.607 0 001.042-.69c.297-.32.537-.75.723-1.29.185-.54.278-1.21.278-2.007 0-.763-.093-1.415-.278-1.955-.186-.54-.431-.98-.737-1.317a2.848 2.848 0 00-1.057-.744 3.31 3.31 0 00-1.237-.24zM95.429 0c.538 0 .973.168 1.308.505.333.338.5.758.5 1.265 0 .505-.167.926-.5 1.264-.335.337-.77.505-1.308.505-.575 0-1.024-.168-1.348-.505-.325-.338-.487-.76-.487-1.264 0-.487.167-.904.5-1.25.334-.347.78-.52 1.335-.52zM65.761 0c.538 0 .974.168 1.308.505.333.338.5.758.5 1.265 0 .505-.167.926-.5 1.264-.334.337-.77.505-1.308.505-.574 0-1.024-.168-1.348-.505-.324-.338-.487-.76-.487-1.264 0-.487.168-.904.5-1.25.334-.347.78-.52 1.335-.52z" id="Combined-Shape" fill="#2D2D2D"/><path d="M20 0v10c0 5.523-4.477 10-10 10S0 15.523 0 10C0 4.478 4.477 0 10 0h10zm-3.307 3.307H10A6.701 6.701 0 003.306 10 6.702 6.702 0 0010 16.694a6.701 6.701 0 006.693-6.674V3.307z" id="Combined-Shape" fill="#FF2D55"/></g></g></g></svg>